<svg xmlns="http://www.w3.org/2000/svg" width="256" height="256" viewBox="0 0 100 100"><path fill="#bd10e0" d="M21.59 75.55H7.5q-1.39 0-2.01-.73-.62-.73-.69-1.53L.35 26.49q-.08-1.02.51-1.53.58-.51 1.38-.51h10.95q1.32 0 1.87.73.54.73.62 1.46l2.19 30.44 15.11-30.44q.29-.73 1.16-1.46.88-.73 2.19-.73h12.05q.88 0 1.13.69.26.7-.11 1.5L25.24 73.29q-.51.8-1.39 1.53-.87.73-2.26.73zm36.28 0H46.92q-.8 0-1.28-.55-.47-.55-.33-1.35l10.15-47.3q.15-.8.8-1.35.66-.55 1.39-.55h9.71q1.31 0 1.79.58.47.59.55.95l10.07 24.24 5.04-23.87q.14-.8.8-1.35t1.46-.55h11.02q.81 0 1.24.55.44.55.3 1.35l-10.08 47.3q-.14.8-.8 1.35t-1.46.55h-9.64q-1.38 0-1.86-.62-.47-.62-.62-.91L64.95 51.09l-4.82 22.56q-.14.8-.8 1.35t-1.46.55z"/></svg>